<?xml version="1.0" standalone="no"?>
<!DOCTYPE svg PUBLIC "-//W3C//DTD SVG 20010904//EN"
 "http://www.w3.org/TR/2001/REC-SVG-20010904/DTD/svg10.dtd">
<svg version="1.0" xmlns="http://www.w3.org/2000/svg"
 width="700.000000pt" height="700.000000pt" viewBox="0 0 700.000000 700.000000"
 preserveAspectRatio="xMidYMid meet">
<metadata>
Created by potrace 1.11, written by Peter Selinger 2001-2013
</metadata>
<g transform="translate(0.000000,700.000000) scale(0.100000,-0.100000)"
fill="#000000" stroke="none">
<path d="M1327 6944 c-343 -52 -611 -187 -857 -434 -230 -229 -361 -485 -426
-835 -5 -22 -9 -994 -11 -2160 -2 -2278 -4 -2177 47 -2377 131 -511 556 -936
1069 -1069 109 -28 120 -30 246 -45 64 -7 4119 -7 4205 1 36 3 78 8 93 11 16
3 38 7 50 8 40 5 186 46 249 70 257 96 474 256 663 487 63 76 167 259 211 371
33 84 62 191 84 313 17 95 18 209 16 2230 -1 1172 -5 2142 -8 2156 -3 14 -11
52 -18 85 -36 177 -130 395 -241 559 -67 100 -258 292 -364 367 -161 113 -357
199 -565 246 l-115 26 -2120 1 c-1709 1 -2137 -1 -2208 -11z m1302 -2198 c41
-21 65 -74 57 -121 -7 -34 -69 -100 -556 -587 l-548 -549 549 -548 c353 -353
550 -557 555 -574 22 -89 -56 -169 -141 -146 -40 11 -1226 1196 -1238 1237
-18 65 -21 61 601 685 329 329 606 603 617 607 31 13 73 11 104 -4z m1270 0
c37 -19 61 -58 61 -96 0 -17 -75 -279 -166 -583 -91 -304 -177 -590 -191 -637
-14 -47 -54 -182 -90 -300 -36 -118 -78 -258 -93 -310 -96 -323 -152 -508
-161 -532 -46 -113 -219 -81 -219 40 0 34 5 52 140 497 62 204 116 386 122
405 5 19 32 109 60 200 55 181 84 279 133 445 18 61 58 195 90 300 32 104 58
194 60 200 1 5 5 17 8 25 3 8 24 79 48 158 23 78 49 151 58 160 38 43 90 53
140 28z m573 5 c24 -9 1201 -1179 1218 -1211 14 -27 12 -77 -4 -108 -8 -15
-282 -294 -608 -619 -448 -447 -600 -593 -618 -594 -106 -5 -149 39 -141 146
0 12 225 244 553 572 l551 552 -537 537 c-296 295 -544 547 -552 559 -22 34
-25 64 -10 99 26 63 87 90 148 67z"/>
</g>
</svg>
