<svg width="118" height="118" xmlns="http://www.w3.org/2000/svg"><path d="M95.578 60.579L76.065 80.09c-.38.383-.88.572-1.38.572-.498 0-.998-.19-1.378-.572a1.948 1.948 0 010-2.757l18.118-18.115L73.29 41.083a1.951 1.951 0 010-2.758 1.951 1.951 0 012.757 0l19.38 19.38c.24.196.434.452.557.748.302.73.152 1.568-.406 2.126m-28.86-20.32l-11.7 39a1.949 1.949 0 11-3.736-1.119l11.7-39a1.944 1.944 0 012.428-1.308 1.95 1.95 0 011.308 2.428M44.787 80.075c-.38.38-.88.571-1.38.571-.498 0-.998-.191-1.378-.571l-19.377-19.38a1.944 1.944 0 01-.154-2.874L42.012 38.31a1.948 1.948 0 012.757 0c.762.76.762 1.995 0 2.757L26.652 59.182l18.135 18.133a1.95 1.95 0 010 2.76M92.15.7h-66.3C11.872.7.5 12.072.5 26.05v66.3c0 13.978 11.372 25.35 25.35 25.35h66.3c13.978 0 25.35-11.372 25.35-25.35v-66.3C117.5 12.072 106.128.7 92.15.7" fill="#6B43AD" fill-rule="nonzero"/></svg>