<svg width="166" height="37" xmlns="http://www.w3.org/2000/svg"><g fill="#6B43AD" fill-rule="nonzero"><path d="M28.942 19.212l-5.838 5.837a.58.58 0 01-.825 0 .583.583 0 010-.825l5.42-5.419-5.425-5.425a.584.584 0 01.825-.825l5.797 5.798a.582.582 0 01.045.86m-8.633-6.079l-3.5 11.667a.583.583 0 11-1.117-.335l3.5-11.667a.583.583 0 111.118.335m-6.562 11.91a.582.582 0 01-.824 0l-5.797-5.797a.582.582 0 01-.046-.86l5.837-5.836a.583.583 0 11.825.825l-5.42 5.419 5.425 5.424a.583.583 0 010 .826M27.917 1.3H8.082C3.9 1.3.499 4.702.499 8.883v19.834c0 4.181 3.402 7.583 7.584 7.583h19.833c4.181 0 7.583-3.402 7.583-7.583V8.883c0-4.181-3.402-7.583-7.583-7.583M57.385 13.418V24.25c0 .516-.449.774-1.346.774s-1.346-.258-1.346-.774v-11.17c0-1.66-1.401-2.534-4.205-2.624h-.37c-3.073 0-4.61.875-4.61 2.624v9.286c0 1.301.197 2.22.59 2.76.392.537 1.07.807 2.035.807h2.658c2.13 0 3.762.415 4.895 1.245 1.133.83 1.699 2.186 1.699 4.07v.135c0 1.884-.566 3.241-1.699 4.071-1.133.83-2.765 1.245-4.895 1.245h-7.638c-.448 0-.673-.393-.673-1.178 0-.785.225-1.177.673-1.177h7.638c1.323 0 2.304-.202 2.944-.606.639-.403.958-1.076.958-2.018v-.808c0-.942-.32-1.615-.958-2.019-.64-.403-1.621-.605-2.944-.605h-2.658c-1.93 0-3.297-.466-4.105-1.396-.807-.931-1.211-2.44-1.211-4.526v-8.95c0-1.86.667-3.212 2.002-4.053 1.334-.842 3.1-1.262 5.299-1.262h4.71c1.458 0 2.613-.247 3.465-.74.27-.18.438-.27.505-.27.27 0 .555.214.858.64.303.426.454.785.454 1.076 0 .404-.33.752-.992 1.043-.662.292-1.542.483-2.641.572.605.83.908 1.828.908 2.995zm10.094-4.71v15.644c0 .718.168 1.385.504 2.002.337.617.505.937.505.96 0 .268-.213.554-.64.857-.426.303-.784.454-1.076.454-.471 0-.92-.41-1.346-1.228-.426-.818-.64-1.721-.64-2.708V8.707c0-.515.45-.773 1.347-.773s1.346.258 1.346.773zm.1-7.167v2.927c0 .561-.487.841-1.463.841-.976 0-1.464-.28-1.464-.84V1.54c0-.56.488-.841 1.464-.841s1.463.28 1.463.841zm11.339 2.624v3.937h3.532c.45 0 .673.392.673 1.177s-.224 1.178-.673 1.178h-3.532v13.895c0 .718.168 1.385.504 2.002.337.617.505.937.505.96 0 .268-.213.554-.64.857-.425.303-.784.454-1.076.454-.47 0-.92-.41-1.346-1.228-.426-.818-.639-1.721-.639-2.708V10.457h-2.691c-.449 0-.673-.393-.673-1.178 0-.785.224-1.177.673-1.177h2.691V4.165c0-.515.449-.773 1.346-.773s1.346.258 1.346.773zm19.245 23.552c-.74.718-1.997 1.076-3.769 1.076s-3.028-.358-3.768-1.076c-.74-.718-1.245-1.896-1.514-3.533l-2.49-14.87c-.067-.472-.1-.73-.1-.775 0-.403.426-.605 1.278-.605.852 0 1.323.258 1.413.773l2.523 15.107c.157.965.41 1.643.757 2.036.348.392.982.588 1.901.588.92 0 1.554-.196 1.901-.588.348-.393.6-1.071.757-2.036l2.524-15.107c.09-.515.56-.773 1.413-.773.852 0 1.278.202 1.278.605 0 .045-.033.303-.1.774l-2.49 14.871c-.27 1.637-.774 2.815-1.514 3.533zm12.886-19.01v15.645c0 .718.168 1.385.504 2.002.337.617.505.937.505.96 0 .268-.213.554-.64.857-.425.303-.784.454-1.076.454-.471 0-.92-.41-1.346-1.228-.426-.818-.639-1.721-.639-2.708V8.707c0-.515.449-.773 1.346-.773s1.346.258 1.346.773zm.1-7.166v2.927c0 .561-.487.841-1.463.841-.976 0-1.464-.28-1.464-.84V1.54c0-.56.488-.841 1.464-.841s1.464.28 1.464.841zm21.701 11.305v1.01c0 1.906-.392 3.218-1.177 3.936-.785.717-2.22 1.177-4.307 1.379l-6.56.64v4.003c0 1.75 1.458 2.624 4.373 2.624 3.32 0 4.98-.762 4.98-2.288v-1.278c0-.516.448-.774 1.346-.774.897 0 1.345.258 1.345.774v.942c0 3.32-2.467 4.98-7.401 4.98-2.176 0-3.942-.427-5.3-1.279-1.356-.852-2.035-2.198-2.035-4.037V12.913c0-1.862.718-3.213 2.153-4.054 1.436-.841 3.309-1.262 5.619-1.262 2.31 0 4.049.404 5.215 1.211 1.166.808 1.75 2.154 1.75 4.038zm-12.044-.27v4.88l6.325-.64c1.278-.135 2.103-.404 2.473-.808.37-.403.555-1.121.555-2.153v-1.278c0-1.75-1.559-2.625-4.677-2.625-3.118 0-4.676.875-4.676 2.625zm27.757 11.238l2.187-13.727c.067-.494.487-.74 1.261-.74.774 0 1.206.246 1.296.74l2.22 13.727c.135.942.376 1.615.723 2.019.348.403.926.605 1.733.605.808 0 1.352-.19 1.632-.572.28-.381.51-1.065.69-2.052l2.523-15.107c.09-.515.56-.773 1.413-.773.852 0 1.279.202 1.279.605l-2.591 15.645c-.27 1.637-.746 2.815-1.43 3.533-.684.718-1.862 1.076-3.533 1.076-1.67 0-2.86-.358-3.566-1.076-.707-.718-1.16-1.896-1.363-3.533l-.84-6.964h-.337l-.808 6.964c-.202 1.637-.656 2.815-1.362 3.533-.707.718-1.896 1.076-3.567 1.076-1.67 0-2.848-.358-3.532-1.076-.684-.718-1.161-1.896-1.43-3.533L138.57 8.54c0-.403.425-.605 1.278-.605.852 0 1.323.258 1.413.773l2.523 15.107c.18.987.41 1.671.69 2.052.28.382.824.572 1.632.572.807 0 1.385-.202 1.732-.605.348-.404.589-1.077.724-2.019z"/></g></svg>