<?xml version="1.0" encoding="UTF-8"?>
<svg width="118px" height="118px" viewBox="0 0 118 118" version="1.1" xmlns="http://www.w3.org/2000/svg" xmlns:xlink="http://www.w3.org/1999/xlink">
    <!-- Generator: Sketch 59.1 (86144) - https://sketch.com -->
    <title>FLDSRC_ICON</title>
    <desc>Created with Sketch.</desc>
    <g id="Page-1" stroke="none" stroke-width="1" fill="none" fill-rule="evenodd">
        <g id="logo" transform="translate(-91.000000, -53.000000)" fill="#6B43AD" fill-rule="nonzero">
            <g id="Group" transform="translate(91.500476, 53.700000)">
                <g id="FLDSRC_ICON">
                    <g id="Group">
                        <g id="Shape">
                            <path d="M95.07771,59.87865 L75.56406,79.39035 C75.18381,79.77255 74.68461,79.9617 74.18541,79.9617 C73.68621,79.9617 73.18701,79.77255 72.80676,79.39035 C72.04431,78.62985 72.04431,77.3955 72.80676,76.63305 L90.92421,58.51755 L72.78921,40.38255 C72.02871,39.62205 72.02871,38.3877 72.78921,37.62525 C73.55166,36.86475 74.78601,36.86475 75.54651,37.62525 L94.92561,57.00435 C95.16741,57.2013 95.36046,57.45675 95.48331,57.75315 C95.78556,58.48245 95.63541,59.32095 95.07771,59.87865 M66.21771,39.55965 L54.51771,78.55965 C54.26421,79.40595 53.49006,79.95 52.64961,79.95 C52.46436,79.95 52.27716,79.92465 52.08996,79.8681 C51.05841,79.55805 50.47341,78.4719 50.78151,77.44035 L62.48151,38.44035 C62.78961,37.4088 63.87381,36.81795 64.90926,37.1319 C65.94276,37.44195 66.52581,38.5281 66.21771,39.55965 M44.28606,79.37475 C43.90581,79.755 43.40661,79.9461 42.90741,79.9461 C42.40821,79.9461 41.90901,79.755 41.52876,79.37475 L22.15161,59.99565 C21.90981,59.7987 21.71676,59.54325 21.59196,59.24685 C21.28971,58.51755 21.43986,57.67905 21.99756,57.12135 L41.51121,37.60965 C42.27366,36.8472 43.50801,36.8472 44.26851,37.60965 C45.03096,38.37015 45.03096,39.6045 44.26851,40.36695 L26.15106,58.48245 L44.28606,76.6155 C45.04851,77.37795 45.04851,78.6123 44.28606,79.37475 M91.64961,0 L25.34961,0 C11.37201,0 -0.00039,11.3724 -0.00039,25.35 L-0.00039,91.65 C-0.00039,105.6276 11.37201,117 25.34961,117 L91.64961,117 C105.62721,117 116.99961,105.6276 116.99961,91.65 L116.99961,25.35 C116.99961,11.3724 105.62721,0 91.64961,0"></path>
                        </g>
                    </g>
                </g>
            </g>
        </g>
    </g>
</svg>