<?xml version="1.0" encoding="UTF-8"?>
<svg width="166px" height="37px" viewBox="0 0 166 37" version="1.1" xmlns="http://www.w3.org/2000/svg" xmlns:xlink="http://www.w3.org/1999/xlink">
    <!-- Generator: Sketch 59.1 (86144) - https://sketch.com -->
    <title>Group 2</title>
    <desc>Created with Sketch.</desc>
    <g id="Page-1" stroke="none" stroke-width="1" fill="none" fill-rule="evenodd">
        <g id="logo" transform="translate(-46.000000, -188.000000)" fill="#6B43AD" fill-rule="nonzero">
            <g id="Group-2" transform="translate(46.000000, 188.699999)">
                <g id="Group" transform="translate(0.000000, 0.300001)">
                    <g id="FLDSRC_ICON" transform="translate(0.499524, 0.300000)">
                        <g id="Group">
                            <g id="Shape">
                                <path d="M28.44205,17.9124167 L22.6046333,23.74925 C22.4908833,23.8635833 22.34155,23.9201667 22.1922167,23.9201667 C22.0428833,23.9201667 21.89355,23.8635833 21.7798,23.74925 C21.5517167,23.52175 21.5517167,23.1525 21.7798,22.9244167 L27.19955,17.50525 L21.77455,12.08025 C21.54705,11.85275 21.54705,11.4835 21.77455,11.2554167 C22.0026333,11.0279167 22.3718833,11.0279167 22.5993833,11.2554167 L28.39655,17.0525833 C28.4688833,17.1115 28.5266333,17.1879167 28.5633833,17.2765833 C28.6538,17.49475 28.6088833,17.7455833 28.44205,17.9124167 M19.8087167,11.8340833 L16.3087167,23.50075 C16.2328833,23.7539167 16.0013,23.9166667 15.7498833,23.9166667 C15.6944667,23.9166667 15.6384667,23.9090833 15.5824667,23.8921667 C15.2738833,23.7994167 15.0988833,23.4745 15.19105,23.1659167 L18.69105,11.49925 C18.7832167,11.1906667 19.10755,11.0139167 19.4173,11.1078333 C19.7264667,11.2005833 19.9008833,11.5255 19.8087167,11.8340833 M13.2479667,23.7445833 C13.1342167,23.8583333 12.9848833,23.9155 12.83555,23.9155 C12.6862167,23.9155 12.5368833,23.8583333 12.4231333,23.7445833 L6.62655,17.9474167 C6.55421667,17.8885 6.49646667,17.8120833 6.45913333,17.7234167 C6.36871667,17.50525 6.41363333,17.2544167 6.58046667,17.0875833 L12.4178833,11.25075 C12.6459667,11.0226667 13.0152167,11.0226667 13.2427167,11.25075 C13.4708,11.47825 13.4708,11.8475 13.2427167,12.0755833 L7.82296667,17.49475 L13.2479667,22.9191667 C13.47605,23.14725 13.47605,23.5165 13.2479667,23.7445833 M27.41655,0 L7.58321667,0 C3.40188333,0 -0.000116666667,3.402 -0.000116666667,7.58333333 L-0.000116666667,27.4166667 C-0.000116666667,31.598 3.40188333,35 7.58321667,35 L27.41655,35 C31.5978833,35 34.9998833,31.598 34.9998833,27.4166667 L34.9998833,7.58333333 C34.9998833,3.402 31.5978833,0 27.41655,0"></path>
                            </g>
                        </g>
                    </g>
                </g>
                <path d="M57.3850465,12.7177572 L57.3850465,12.7177572 L57.3850465,23.5514023 C57.3850465,24.0672901 56.9364484,24.3252341 56.0392521,24.3252341 C55.1420558,24.3252341 54.6934577,24.0672901 54.6934577,23.5514023 L54.6934577,23.5514023 L54.6934577,12.3813086 C54.6934577,10.7214955 53.2915885,9.84672915 50.4878501,9.75700952 L50.4878501,9.75700952 L50.1177566,9.75700952 C47.0448594,9.75700952 45.5084108,10.6317759 45.5084108,12.3813086 L45.5084108,12.3813086 L45.5084108,21.6672901 C45.5084108,22.9682247 45.7046725,23.8878509 46.0971958,24.4261687 C46.4897192,24.9644864 47.1682239,25.2336453 48.1327099,25.2336453 L48.1327099,25.2336453 L50.7906539,25.2336453 C52.921495,25.2336453 54.5532707,25.6485986 55.685981,26.4785051 C56.8186913,27.3084117 57.3850465,28.6654211 57.3850465,30.5495333 L57.3850465,30.5495333 L57.3850465,30.6841127 C57.3850465,32.5682249 56.8186913,33.9252342 55.685981,34.7551408 C54.5532707,35.5850474 52.921495,36.0000006 50.7906539,36.0000006 L50.7906539,36.0000006 L43.1532705,36.0000006 C42.7046724,36.0000006 42.4803733,35.6074773 42.4803733,34.8224305 C42.4803733,34.0373838 42.7046724,33.6448604 43.1532705,33.6448604 L43.1532705,33.6448604 L50.7906539,33.6448604 C52.1140184,33.6448604 53.0953268,33.4429913 53.7345791,33.0392529 C54.3738315,32.6355146 54.6934577,31.9626174 54.6934577,31.0205613 L54.6934577,31.0205613 L54.6934577,30.2130847 C54.6934577,29.2710286 54.3738315,28.5981314 53.7345791,28.194393 C53.0953268,27.7906547 52.1140184,27.5887855 50.7906539,27.5887855 L50.7906539,27.5887855 L48.1327099,27.5887855 C46.2037379,27.5887855 44.8355136,27.123365 44.0280369,26.1925238 C43.2205603,25.2616827 42.8168219,23.7532715 42.8168219,21.6672901 L42.8168219,21.6672901 L42.8168219,12.7177572 C42.8168219,10.856075 43.4841117,9.50467307 44.8186911,8.66355156 C46.1532706,7.82243005 47.9196258,7.40186929 50.1177566,7.40186929 L50.1177566,7.40186929 L54.8280371,7.40186929 C56.2859811,7.40186929 57.4411213,7.15514031 58.2934577,6.66168236 L58.2934577,6.66168236 C58.5626166,6.48224311 58.7308409,6.39252348 58.7981306,6.39252348 L58.7981306,6.39252348 C59.0672895,6.39252348 59.3532708,6.60560759 59.6560746,7.03177583 C59.9588783,7.45794406 60.1102802,7.81682257 60.1102802,8.10841136 L60.1102802,8.10841136 C60.1102802,8.51214968 59.7794391,8.85981324 59.1177568,9.15140203 C58.4560745,9.44299082 57.5757007,9.63364503 56.4766353,9.72336466 L56.4766353,9.72336466 C57.0822427,10.5532712 57.3850465,11.5514021 57.3850465,12.7177572 Z M67.4785046,8.00747678 L67.4785046,8.00747678 L67.4785046,23.6523369 C67.4785046,24.3700939 67.6467289,25.0373836 67.9831775,25.6542061 C68.3196261,26.2710285 68.4878504,26.5906547 68.4878504,26.6130846 L68.4878504,26.6130846 C68.4878504,26.8822435 68.2747663,27.1682248 67.8485981,27.4710285 C67.4224298,27.7738323 67.0635513,27.9252341 66.7719625,27.9252341 L66.7719625,27.9252341 C66.3009345,27.9252341 65.8523364,27.5158883 65.4261681,26.6971967 C64.9999999,25.8785051 64.7869158,24.9757014 64.7869158,23.9887855 L64.7869158,23.9887855 L64.7869158,8.00747678 C64.7869158,7.49158892 65.2355139,7.23364499 66.1327102,7.23364499 C67.0299065,7.23364499 67.4785046,7.49158892 67.4785046,8.00747678 Z M67.5794392,0.84112151 L67.5794392,0.84112151 L67.5794392,3.76822437 C67.5794392,4.32897204 67.0915887,4.60934588 66.1158878,4.60934588 C65.1401868,4.60934588 64.6523363,4.32897204 64.6523363,3.76822437 L64.6523363,3.76822437 L64.6523363,0.84112151 C64.6523363,0.280373837 65.1401868,0 66.1158878,0 C67.0915887,0 67.5794392,0.280373837 67.5794392,0.84112151 Z M78.9177572,3.46542062 L78.9177572,3.46542062 L78.9177572,7.40186929 L82.4504675,7.40186929 C82.8990656,7.40186929 83.1233647,7.79439266 83.1233647,8.57943941 C83.1233647,9.36448615 82.8990656,9.75700952 82.4504675,9.75700952 L82.4504675,9.75700952 L78.9177572,9.75700952 L78.9177572,23.6523369 C78.9177572,24.3700939 79.0859815,25.0373836 79.4224301,25.6542061 C79.7588787,26.2710285 79.927103,26.5906547 79.927103,26.6130846 L79.927103,26.6130846 C79.927103,26.8822435 79.7140189,27.1682248 79.2878506,27.4710285 C78.8616823,27.7738323 78.5028039,27.9252341 78.2112151,27.9252341 L78.2112151,27.9252341 C77.740187,27.9252341 77.2915889,27.5158883 76.8654207,26.6971967 C76.4392524,25.8785051 76.2261683,24.9757014 76.2261683,23.9887855 L76.2261683,23.9887855 L76.2261683,9.75700952 L73.5345795,9.75700952 C73.0859814,9.75700952 72.8616823,9.36448615 72.8616823,8.57943941 C72.8616823,7.79439266 73.0859814,7.40186929 73.5345795,7.40186929 L73.5345795,7.40186929 L76.2261683,7.40186929 L76.2261683,3.46542062 C76.2261683,2.94953276 76.6747665,2.69158883 77.5719627,2.69158883 C78.469159,2.69158883 78.9177572,2.94953276 78.9177572,3.46542062 Z M98.1626173,27.0168229 C97.4224304,27.7345799 96.1663556,28.0934584 94.3943929,28.0934584 C92.6224303,28.0934584 91.3663555,27.7345799 90.6261686,27.0168229 C89.8859817,26.2990659 89.3813087,25.1214958 89.1121499,23.4841126 L89.1121499,23.4841126 L86.6224302,8.61308427 C86.5551405,8.14205622 86.5214956,7.88411229 86.5214956,7.83925248 L86.5214956,7.83925248 C86.5214956,7.43551415 86.9476638,7.23364499 87.8000003,7.23364499 C88.6523368,7.23364499 89.1233648,7.49158892 89.2130844,8.00747678 L89.2130844,8.00747678 L91.736449,23.1140191 C91.8934583,24.0785051 92.1457948,24.7570098 92.4934583,25.1495332 C92.8411219,25.5420565 93.4747668,25.7383182 94.3943929,25.7383182 C95.3140191,25.7383182 95.947664,25.5420565 96.2953276,25.1495332 C96.6429911,24.7570098 96.8953276,24.0785051 97.0523369,23.1140191 L97.0523369,23.1140191 L99.5757014,8.00747678 C99.6654211,7.49158892 100.136449,7.23364499 100.988786,7.23364499 C101.841122,7.23364499 102.26729,7.43551415 102.26729,7.83925248 L102.26729,7.83925248 C102.26729,7.88411229 102.233645,8.14205622 102.166356,8.61308427 L102.166356,8.61308427 L99.676636,23.4841126 C99.4074771,25.1214958 98.9028042,26.2990659 98.1626173,27.0168229 Z M111.048599,8.00747678 L111.048599,8.00747678 L111.048599,23.6523369 C111.048599,24.3700939 111.216823,25.0373836 111.553272,25.6542061 C111.88972,26.2710285 112.057945,26.5906547 112.057945,26.6130846 L112.057945,26.6130846 C112.057945,26.8822435 111.844861,27.1682248 111.418692,27.4710285 C110.992524,27.7738323 110.633646,27.9252341 110.342057,27.9252341 L110.342057,27.9252341 C109.871029,27.9252341 109.422431,27.5158883 108.996262,26.6971967 C108.570094,25.8785051 108.35701,24.9757014 108.35701,23.9887855 L108.35701,23.9887855 L108.35701,8.00747678 C108.35701,7.49158892 108.805608,7.23364499 109.702804,7.23364499 C110.600001,7.23364499 111.048599,7.49158892 111.048599,8.00747678 Z M111.149533,0.84112151 L111.149533,0.84112151 L111.149533,3.76822437 C111.149533,4.32897204 110.661683,4.60934588 109.685982,4.60934588 C108.710281,4.60934588 108.222431,4.32897204 108.222431,3.76822437 L108.222431,3.76822437 L108.222431,0.84112151 C108.222431,0.280373837 108.710281,0 109.685982,0 C110.661683,0 111.149533,0.280373837 111.149533,0.84112151 Z M132.850468,12.1457946 L132.850468,12.1457946 L132.850468,13.1551404 C132.850468,15.0616825 132.457945,16.3738321 131.672898,17.0915891 C130.887852,17.8093461 129.452337,18.2691592 127.366356,18.4710284 L127.366356,18.4710284 L120.805608,19.1102807 L120.805608,23.1140191 C120.805608,24.8635518 122.263552,25.7383182 125.17944,25.7383182 L125.17944,25.7383182 C128.499066,25.7383182 130.15888,24.9757014 130.15888,23.4504677 L130.15888,23.4504677 L130.15888,22.171963 C130.15888,21.6560752 130.607478,21.3981312 131.504674,21.3981312 C132.40187,21.3981312 132.850468,21.6560752 132.850468,22.171963 L132.850468,22.171963 L132.850468,23.1140191 C132.850468,26.4336453 130.383179,28.0934584 125.448599,28.0934584 L125.448599,28.0934584 C123.272898,28.0934584 121.506543,27.6672902 120.149534,26.8149537 C118.792524,25.9626173 118.11402,24.6168229 118.11402,22.7775705 L118.11402,22.7775705 L118.11402,12.2130843 C118.11402,10.3514021 118.831777,9.00000016 120.267291,8.15887865 C121.702805,7.31775714 123.575702,6.89719638 125.885982,6.89719638 C128.196263,6.89719638 129.93458,7.30093471 131.100936,8.10841136 C132.267291,8.91588801 132.850468,10.2616824 132.850468,12.1457946 Z M120.805608,11.8766357 L120.805608,11.8766357 L120.805608,16.7551405 L127.130842,16.1158881 C128.409347,15.9813087 129.233646,15.7121498 129.603739,15.3084115 C129.973833,14.9046732 130.15888,14.1869161 130.15888,13.1551404 L130.15888,13.1551404 L130.15888,11.8766357 C130.15888,10.127103 128.600001,9.25233661 125.482244,9.25233661 C122.364487,9.25233661 120.805608,10.127103 120.805608,11.8766357 Z M148.562618,23.1140191 L150.749534,9.38691606 C150.816824,8.8934581 151.237385,8.64672913 152.011216,8.64672913 C152.785048,8.64672913 153.216824,8.8934581 153.306544,9.38691606 L153.306544,9.38691606 L155.527104,23.1140191 C155.661684,24.0560752 155.902805,24.7289724 156.250469,25.1327107 C156.598132,25.5364491 157.175702,25.7383182 157.983179,25.7383182 C158.790656,25.7383182 159.334581,25.547664 159.614955,25.1663556 C159.895329,24.7850472 160.125235,24.100935 160.304674,23.1140191 L160.304674,23.1140191 L162.828039,8.00747678 C162.917759,7.49158892 163.388787,7.23364499 164.241123,7.23364499 C165.09346,7.23364499 165.519628,7.43551415 165.519628,7.83925248 L165.519628,7.83925248 L162.928974,23.4841126 C162.659815,25.1214958 162.183179,26.2990659 161.499067,27.0168229 C160.814955,27.7345799 159.637385,28.0934584 157.966357,28.0934584 C156.295329,28.0934584 155.106544,27.7345799 154.400001,27.0168229 C153.693459,26.2990659 153.239254,25.1214958 153.037385,23.4841126 L153.037385,23.4841126 L152.196263,16.5196265 L151.859815,16.5196265 L151.052338,23.4841126 C150.850469,25.1214958 150.396263,26.2990659 149.689721,27.0168229 C148.983179,27.7345799 147.794394,28.0934584 146.123366,28.0934584 C144.452338,28.0934584 143.274768,27.7345799 142.590655,27.0168229 C141.906543,26.2990659 141.429908,25.1214958 141.160749,23.4841126 L141.160749,23.4841126 L138.570095,7.83925248 C138.570095,7.43551415 138.996263,7.23364499 139.848599,7.23364499 C140.700936,7.23364499 141.171964,7.49158892 141.261684,8.00747678 L141.261684,8.00747678 L143.785048,23.1140191 C143.964487,24.100935 144.194394,24.7850472 144.474768,25.1663556 C144.755142,25.547664 145.299067,25.7383182 146.106543,25.7383182 C146.91402,25.7383182 147.49159,25.5364491 147.839254,25.1327107 C148.186917,24.7289724 148.428039,24.0560752 148.562618,23.1140191 L148.562618,23.1140191 Z" id="Shape"></path>
            </g>
        </g>
    </g>
</svg>